# xmcd CD database file
#
# Track frame offsets:
#	150
#	22857
#	45170
#	63814
#	89435
#	109667
#	131000
#	153497
#	175480
#	198180
#
# Disc length: 2923 seconds
#
# Revision: 1
# Processed by: cddbd v1.4PL0 Copyright (c) Steve Scherf et al.
# Submitted via: CDex 1.51
#
DISCID=750b690a
DTITLE=Various Christian Authors - Christian Music's Finest
DYEAR=1995
DGENRE=Jazz
TTITLE0=Because He Lives
TTITLE1=God Is In Control
TTITLE2=I'll Not Forget You
TTITLE3=Via Dolorosa
TTITLE4=Heaven In The Real World
TTITLE5=More Than Wonderful
TTITLE6=Jesus Will Still Be There
TTITLE7=Stay For Awhile
TTITLE8=Friends
TTITLE9=We Shall Behold Him
EXTD=YEAR: 1995
EXTT0=
EXTT1=
EXTT2=
EXTT3=
EXTT4=
EXTT5=
EXTT6=
EXTT7=
EXTT8=
EXTT9=
PLAYORDER=
